<svg role="img" fill="none" xmlns="http://www.w3.org/2000/svg" viewBox="0 0 16 16" width="16" height="16"><title>Window Icon</title><g clip-path="url(#a)"><path fill-rule="evenodd" clip-rule="evenodd" d="M2.5 1A1.5 1.5 0 0 0 1 2.5v11A1.5 1.5 0 0 0 2.5 15h11a1.5 1.5 0 0 0 1.5-1.5v-11A1.5 1.5 0 0 0 13.5 1zM2 2.5a.5.5 0 0 1 .5-.5h11a.5.5 0 0 1 .5.5v1.75H2zM2 13.5V5.75h12v7.75a.5.5 0 0 1-.5.5h-11a.5.5 0 0 1-.5-.5M4.5 3.5a1 1 0 1 0 0-2 1 1 0 0 0 0 2m3 0a1 1 0 1 0 0-2 1 1 0 0 0 0 2m2 1a1 1 0 1 1-2 0 1 1 0 0 1 2 0" fill="#666"/></g><defs><clipPath id="a"><path fill="#fff" d="M0 0h16v16H0z"/></clipPath></defs></svg>